<mxfile host="app.diagrams.net" modified="2023-11-08T15:25:15.598Z" agent="Mozilla/5.0 (Windows NT 10.0; Win64; x64) AppleWebKit/537.36 (KHTML, like Gecko) Chrome/119.0.0.0 Safari/537.36" etag="EMfCR7Ado-GZ5Md-TmQD" version="22.0.8" type="device">
  <diagram name="Page-1" id="I6Kkhxmyqso2m6LQIETv">
    <mxGraphModel dx="988" dy="593" grid="1" gridSize="10" guides="1" tooltips="1" connect="1" arrows="1" fold="1" page="1" pageScale="1" pageWidth="850" pageHeight="1100" math="0" shadow="0">
      <root>
        <mxCell id="0" />
        <mxCell id="1" parent="0" />
        <mxCell id="2qmqJhzmF6oV58kFOMkS-1" value="Rețea de comunicare" style="ellipse;whiteSpace=wrap;html=1;aspect=fixed;" vertex="1" parent="1">
          <mxGeometry x="390" y="130" width="160" height="160" as="geometry" />
        </mxCell>
        <mxCell id="2qmqJhzmF6oV58kFOMkS-23" value="România" style="rounded=0;whiteSpace=wrap;html=1;verticalAlign=top;movable=1;resizable=1;rotatable=1;deletable=1;editable=1;locked=0;connectable=1;" vertex="1" parent="1">
          <mxGeometry x="630" y="40" width="210" height="320" as="geometry" />
        </mxCell>
        <mxCell id="2qmqJhzmF6oV58kFOMkS-24" value="Iași" style="rounded=0;whiteSpace=wrap;html=1;" vertex="1" parent="1">
          <mxGeometry x="650" y="80" width="70" height="20" as="geometry" />
        </mxCell>
        <mxCell id="2qmqJhzmF6oV58kFOMkS-27" value="" style="strokeWidth=2;html=1;shape=mxgraph.flowchart.database;whiteSpace=wrap;" vertex="1" parent="1">
          <mxGeometry x="780" y="70" width="30" height="40" as="geometry" />
        </mxCell>
        <mxCell id="2qmqJhzmF6oV58kFOMkS-28" value="" style="strokeWidth=2;html=1;shape=mxgraph.flowchart.database;whiteSpace=wrap;" vertex="1" parent="1">
          <mxGeometry x="780" y="160" width="30" height="40" as="geometry" />
        </mxCell>
        <mxCell id="2qmqJhzmF6oV58kFOMkS-25" value="Galați" style="rounded=0;whiteSpace=wrap;html=1;" vertex="1" parent="1">
          <mxGeometry x="650" y="170" width="70" height="20" as="geometry" />
        </mxCell>
        <mxCell id="2qmqJhzmF6oV58kFOMkS-26" value="Bacău" style="rounded=0;whiteSpace=wrap;html=1;" vertex="1" parent="1">
          <mxGeometry x="650" y="260" width="70" height="20" as="geometry" />
        </mxCell>
        <mxCell id="2qmqJhzmF6oV58kFOMkS-29" value="" style="strokeWidth=2;html=1;shape=mxgraph.flowchart.database;whiteSpace=wrap;" vertex="1" parent="1">
          <mxGeometry x="780" y="250" width="30" height="40" as="geometry" />
        </mxCell>
        <mxCell id="2qmqJhzmF6oV58kFOMkS-30" value="Angajații&lt;br&gt;&lt;div style=&quot;text-align: left;&quot;&gt;Clienți&lt;/div&gt;" style="rounded=0;whiteSpace=wrap;html=1;fillColor=none;strokeColor=none;" vertex="1" parent="1">
          <mxGeometry x="755" y="290" width="80" height="60" as="geometry" />
        </mxCell>
        <mxCell id="2qmqJhzmF6oV58kFOMkS-31" value="Angajații&lt;br&gt;&lt;div style=&quot;text-align: left;&quot;&gt;Clienți&lt;/div&gt;" style="rounded=0;whiteSpace=wrap;html=1;fillColor=none;strokeColor=none;" vertex="1" parent="1">
          <mxGeometry x="755" y="190" width="80" height="60" as="geometry" />
        </mxCell>
        <mxCell id="2qmqJhzmF6oV58kFOMkS-32" value="Angajații&lt;br&gt;&lt;div style=&quot;text-align: left;&quot;&gt;Clienți&lt;/div&gt;&lt;div style=&quot;text-align: left;&quot;&gt;Foi&lt;/div&gt;" style="rounded=0;whiteSpace=wrap;html=1;fillColor=none;strokeColor=none;" vertex="1" parent="1">
          <mxGeometry x="755" y="100" width="80" height="60" as="geometry" />
        </mxCell>
        <mxCell id="2qmqJhzmF6oV58kFOMkS-39" value="" style="endArrow=none;html=1;rounded=0;exitX=0;exitY=0.5;exitDx=0;exitDy=0;exitPerimeter=0;entryX=1;entryY=0.5;entryDx=0;entryDy=0;" edge="1" parent="1" source="2qmqJhzmF6oV58kFOMkS-27" target="2qmqJhzmF6oV58kFOMkS-24">
          <mxGeometry width="50" height="50" relative="1" as="geometry">
            <mxPoint x="230" y="300" as="sourcePoint" />
            <mxPoint x="290" y="300" as="targetPoint" />
          </mxGeometry>
        </mxCell>
        <mxCell id="2qmqJhzmF6oV58kFOMkS-40" value="" style="endArrow=none;html=1;rounded=0;entryX=1;entryY=0.5;entryDx=0;entryDy=0;exitX=0;exitY=0.5;exitDx=0;exitDy=0;exitPerimeter=0;" edge="1" parent="1" source="2qmqJhzmF6oV58kFOMkS-28" target="2qmqJhzmF6oV58kFOMkS-25">
          <mxGeometry width="50" height="50" relative="1" as="geometry">
            <mxPoint x="790" y="110" as="sourcePoint" />
            <mxPoint x="730" y="100" as="targetPoint" />
          </mxGeometry>
        </mxCell>
        <mxCell id="2qmqJhzmF6oV58kFOMkS-41" value="" style="endArrow=none;html=1;rounded=0;entryX=1;entryY=0.5;entryDx=0;entryDy=0;exitX=0;exitY=0.5;exitDx=0;exitDy=0;exitPerimeter=0;" edge="1" parent="1" source="2qmqJhzmF6oV58kFOMkS-29" target="2qmqJhzmF6oV58kFOMkS-26">
          <mxGeometry width="50" height="50" relative="1" as="geometry">
            <mxPoint x="790" y="190" as="sourcePoint" />
            <mxPoint x="730" y="190" as="targetPoint" />
          </mxGeometry>
        </mxCell>
        <mxCell id="2qmqJhzmF6oV58kFOMkS-53" value="" style="endArrow=none;html=1;rounded=0;exitX=1;exitY=0.5;exitDx=0;exitDy=0;" edge="1" parent="1" target="2qmqJhzmF6oV58kFOMkS-54" source="2qmqJhzmF6oV58kFOMkS-5">
          <mxGeometry width="50" height="50" relative="1" as="geometry">
            <mxPoint x="370" y="370" as="sourcePoint" />
            <mxPoint x="420" y="320" as="targetPoint" />
          </mxGeometry>
        </mxCell>
        <mxCell id="2qmqJhzmF6oV58kFOMkS-54" value="" style="ellipse;whiteSpace=wrap;html=1;aspect=fixed;" vertex="1" parent="1">
          <mxGeometry x="390" y="185" width="10" height="10" as="geometry" />
        </mxCell>
        <mxCell id="2qmqJhzmF6oV58kFOMkS-57" value="" style="endArrow=none;html=1;rounded=0;exitX=1;exitY=0.5;exitDx=0;exitDy=0;" edge="1" parent="1" target="2qmqJhzmF6oV58kFOMkS-58" source="2qmqJhzmF6oV58kFOMkS-6">
          <mxGeometry width="50" height="50" relative="1" as="geometry">
            <mxPoint x="400" y="420" as="sourcePoint" />
            <mxPoint x="450" y="370" as="targetPoint" />
          </mxGeometry>
        </mxCell>
        <mxCell id="2qmqJhzmF6oV58kFOMkS-58" value="" style="ellipse;whiteSpace=wrap;html=1;aspect=fixed;" vertex="1" parent="1">
          <mxGeometry x="390" y="220" width="10" height="10" as="geometry" />
        </mxCell>
        <mxCell id="2qmqJhzmF6oV58kFOMkS-59" value="" style="group" vertex="1" connectable="0" parent="1">
          <mxGeometry x="610" y="10" width="20" height="90" as="geometry" />
        </mxCell>
        <mxCell id="2qmqJhzmF6oV58kFOMkS-61" value="" style="ellipse;whiteSpace=wrap;html=1;aspect=fixed;" vertex="1" parent="1">
          <mxGeometry x="535" y="160" width="10" height="10" as="geometry" />
        </mxCell>
        <mxCell id="2qmqJhzmF6oV58kFOMkS-60" value="" style="endArrow=none;html=1;rounded=0;exitX=0;exitY=0.5;exitDx=0;exitDy=0;" edge="1" parent="1" target="2qmqJhzmF6oV58kFOMkS-61" source="2qmqJhzmF6oV58kFOMkS-24">
          <mxGeometry width="50" height="50" relative="1" as="geometry">
            <mxPoint x="580" y="170" as="sourcePoint" />
            <mxPoint x="630" y="120" as="targetPoint" />
          </mxGeometry>
        </mxCell>
        <mxCell id="2qmqJhzmF6oV58kFOMkS-63" value="" style="group" vertex="1" connectable="0" parent="1">
          <mxGeometry x="520" y="281.4" width="20" height="90" as="geometry" />
        </mxCell>
        <mxCell id="2qmqJhzmF6oV58kFOMkS-65" value="" style="ellipse;whiteSpace=wrap;html=1;aspect=fixed;" vertex="1" parent="1">
          <mxGeometry x="550" y="210" width="10" height="10" as="geometry" />
        </mxCell>
        <mxCell id="2qmqJhzmF6oV58kFOMkS-64" value="" style="endArrow=none;html=1;rounded=0;exitX=0;exitY=0.5;exitDx=0;exitDy=0;" edge="1" parent="1" target="2qmqJhzmF6oV58kFOMkS-65" source="2qmqJhzmF6oV58kFOMkS-25">
          <mxGeometry width="50" height="50" relative="1" as="geometry">
            <mxPoint x="530" y="385" as="sourcePoint" />
            <mxPoint x="580" y="335" as="targetPoint" />
          </mxGeometry>
        </mxCell>
        <mxCell id="2qmqJhzmF6oV58kFOMkS-66" value="" style="group" vertex="1" connectable="0" parent="1">
          <mxGeometry x="490" y="310" width="20" height="90" as="geometry" />
        </mxCell>
        <mxCell id="2qmqJhzmF6oV58kFOMkS-68" value="" style="ellipse;whiteSpace=wrap;html=1;aspect=fixed;" vertex="1" parent="1">
          <mxGeometry x="530" y="255" width="10" height="10" as="geometry" />
        </mxCell>
        <mxCell id="2qmqJhzmF6oV58kFOMkS-67" value="" style="endArrow=none;html=1;rounded=0;exitX=0;exitY=0.5;exitDx=0;exitDy=0;entryX=1;entryY=1;entryDx=0;entryDy=0;" edge="1" parent="1" target="2qmqJhzmF6oV58kFOMkS-68" source="2qmqJhzmF6oV58kFOMkS-26">
          <mxGeometry width="50" height="50" relative="1" as="geometry">
            <mxPoint x="490" y="400" as="sourcePoint" />
            <mxPoint x="540" y="260" as="targetPoint" />
          </mxGeometry>
        </mxCell>
        <mxCell id="2qmqJhzmF6oV58kFOMkS-45" value="" style="endArrow=none;html=1;rounded=0;entryX=0;entryY=0.5;entryDx=0;entryDy=0;exitX=1;exitY=0.5;exitDx=0;exitDy=0;" edge="1" target="2qmqJhzmF6oV58kFOMkS-46" parent="1" source="2qmqJhzmF6oV58kFOMkS-3">
          <mxGeometry width="50" height="50" relative="1" as="geometry">
            <mxPoint x="390" y="300" as="sourcePoint" />
            <mxPoint x="440" y="250" as="targetPoint" />
          </mxGeometry>
        </mxCell>
        <mxCell id="2qmqJhzmF6oV58kFOMkS-46" value="" style="ellipse;whiteSpace=wrap;html=1;aspect=fixed;" vertex="1" parent="1">
          <mxGeometry x="400" y="150" width="10" height="10" as="geometry" />
        </mxCell>
        <mxCell id="2qmqJhzmF6oV58kFOMkS-73" value="Bulgaria" style="rounded=0;whiteSpace=wrap;html=1;strokeColor=default;verticalAlign=top;" vertex="1" parent="1">
          <mxGeometry x="160" y="390" width="220" height="170" as="geometry" />
        </mxCell>
        <mxCell id="2qmqJhzmF6oV58kFOMkS-74" value="Oficiul din Bulgaria" style="rounded=0;whiteSpace=wrap;html=1;" vertex="1" parent="1">
          <mxGeometry x="260" y="430" width="110" height="20" as="geometry" />
        </mxCell>
        <mxCell id="2qmqJhzmF6oV58kFOMkS-2" value="Moldova&lt;br&gt;" style="rounded=0;whiteSpace=wrap;html=1;verticalAlign=top;movable=1;resizable=1;rotatable=1;deletable=1;editable=1;locked=0;connectable=1;" vertex="1" parent="1">
          <mxGeometry x="80" y="30" width="210" height="320" as="geometry" />
        </mxCell>
        <mxCell id="2qmqJhzmF6oV58kFOMkS-3" value="Chisinau&lt;br&gt;" style="rounded=0;whiteSpace=wrap;html=1;movable=1;resizable=1;rotatable=1;deletable=1;editable=1;locked=0;connectable=1;" vertex="1" parent="1">
          <mxGeometry x="210" y="70" width="70" height="20" as="geometry" />
        </mxCell>
        <mxCell id="2qmqJhzmF6oV58kFOMkS-5" value="Cahul" style="rounded=0;whiteSpace=wrap;html=1;movable=1;resizable=1;rotatable=1;deletable=1;editable=1;locked=0;connectable=1;" vertex="1" parent="1">
          <mxGeometry x="210" y="160" width="70" height="20" as="geometry" />
        </mxCell>
        <mxCell id="2qmqJhzmF6oV58kFOMkS-6" value="Balți" style="rounded=0;whiteSpace=wrap;html=1;movable=1;resizable=1;rotatable=1;deletable=1;editable=1;locked=0;connectable=1;" vertex="1" parent="1">
          <mxGeometry x="210" y="250" width="70" height="20" as="geometry" />
        </mxCell>
        <mxCell id="2qmqJhzmF6oV58kFOMkS-11" value="" style="strokeWidth=2;html=1;shape=mxgraph.flowchart.database;whiteSpace=wrap;movable=1;resizable=1;rotatable=1;deletable=1;editable=1;locked=0;connectable=1;" vertex="1" parent="1">
          <mxGeometry x="120" y="60" width="30" height="40" as="geometry" />
        </mxCell>
        <mxCell id="2qmqJhzmF6oV58kFOMkS-12" value="" style="strokeWidth=2;html=1;shape=mxgraph.flowchart.database;whiteSpace=wrap;movable=1;resizable=1;rotatable=1;deletable=1;editable=1;locked=0;connectable=1;" vertex="1" parent="1">
          <mxGeometry x="120" y="150" width="30" height="40" as="geometry" />
        </mxCell>
        <mxCell id="2qmqJhzmF6oV58kFOMkS-13" value="" style="strokeWidth=2;html=1;shape=mxgraph.flowchart.database;whiteSpace=wrap;movable=1;resizable=1;rotatable=1;deletable=1;editable=1;locked=0;connectable=1;" vertex="1" parent="1">
          <mxGeometry x="120" y="240" width="30" height="40" as="geometry" />
        </mxCell>
        <mxCell id="2qmqJhzmF6oV58kFOMkS-33" value="Angajații&lt;br&gt;&lt;div style=&quot;text-align: left;&quot;&gt;Clienți&lt;/div&gt;&lt;div style=&quot;text-align: left;&quot;&gt;Foi&lt;/div&gt;" style="rounded=0;whiteSpace=wrap;html=1;fillColor=none;strokeColor=none;movable=1;resizable=1;rotatable=1;deletable=1;editable=1;locked=0;connectable=1;" vertex="1" parent="1">
          <mxGeometry x="95" y="90" width="80" height="60" as="geometry" />
        </mxCell>
        <mxCell id="2qmqJhzmF6oV58kFOMkS-34" value="Angajații&lt;br&gt;&lt;div style=&quot;text-align: left;&quot;&gt;Clienți&lt;/div&gt;" style="rounded=0;whiteSpace=wrap;html=1;fillColor=none;strokeColor=none;movable=1;resizable=1;rotatable=1;deletable=1;editable=1;locked=0;connectable=1;" vertex="1" parent="1">
          <mxGeometry x="95" y="180" width="80" height="60" as="geometry" />
        </mxCell>
        <mxCell id="2qmqJhzmF6oV58kFOMkS-35" value="Angajații&lt;br&gt;&lt;div style=&quot;text-align: left;&quot;&gt;Clienți&lt;/div&gt;" style="rounded=0;whiteSpace=wrap;html=1;fillColor=none;strokeColor=none;movable=1;resizable=1;rotatable=1;deletable=1;editable=1;locked=0;connectable=1;" vertex="1" parent="1">
          <mxGeometry x="95" y="270" width="80" height="60" as="geometry" />
        </mxCell>
        <mxCell id="2qmqJhzmF6oV58kFOMkS-36" value="" style="endArrow=none;html=1;rounded=0;exitX=1;exitY=0.5;exitDx=0;exitDy=0;exitPerimeter=0;entryX=0;entryY=0.5;entryDx=0;entryDy=0;movable=1;resizable=1;rotatable=1;deletable=1;editable=1;locked=0;connectable=1;" edge="1" parent="1" source="2qmqJhzmF6oV58kFOMkS-11" target="2qmqJhzmF6oV58kFOMkS-3">
          <mxGeometry width="50" height="50" relative="1" as="geometry">
            <mxPoint x="360" y="230" as="sourcePoint" />
            <mxPoint x="410" y="180" as="targetPoint" />
          </mxGeometry>
        </mxCell>
        <mxCell id="2qmqJhzmF6oV58kFOMkS-37" value="" style="endArrow=none;html=1;rounded=0;exitX=1;exitY=0.5;exitDx=0;exitDy=0;exitPerimeter=0;entryX=0;entryY=0.5;entryDx=0;entryDy=0;movable=1;resizable=1;rotatable=1;deletable=1;editable=1;locked=0;connectable=1;" edge="1" parent="1" source="2qmqJhzmF6oV58kFOMkS-12" target="2qmqJhzmF6oV58kFOMkS-5">
          <mxGeometry width="50" height="50" relative="1" as="geometry">
            <mxPoint x="160" y="90" as="sourcePoint" />
            <mxPoint x="220" y="90" as="targetPoint" />
          </mxGeometry>
        </mxCell>
        <mxCell id="2qmqJhzmF6oV58kFOMkS-38" value="" style="endArrow=none;html=1;rounded=0;exitX=1;exitY=0.5;exitDx=0;exitDy=0;exitPerimeter=0;entryX=0;entryY=0.5;entryDx=0;entryDy=0;movable=1;resizable=1;rotatable=1;deletable=1;editable=1;locked=0;connectable=1;" edge="1" parent="1" source="2qmqJhzmF6oV58kFOMkS-13" target="2qmqJhzmF6oV58kFOMkS-6">
          <mxGeometry width="50" height="50" relative="1" as="geometry">
            <mxPoint x="160" y="180" as="sourcePoint" />
            <mxPoint x="220" y="180" as="targetPoint" />
          </mxGeometry>
        </mxCell>
        <mxCell id="2qmqJhzmF6oV58kFOMkS-90" value="" style="strokeWidth=2;html=1;shape=mxgraph.flowchart.database;whiteSpace=wrap;movable=1;resizable=1;rotatable=1;deletable=1;editable=1;locked=0;connectable=1;" vertex="1" parent="1">
          <mxGeometry x="190" y="420" width="30" height="40" as="geometry" />
        </mxCell>
        <mxCell id="2qmqJhzmF6oV58kFOMkS-92" value="Angajații străini&lt;br&gt;Lista contactelor hoteluri&lt;br&gt;Statistici hoteuri/atracțiuni&lt;br&gt;Opțiuni de transport" style="rounded=0;whiteSpace=wrap;html=1;fontColor=default;fillColor=none;strokeColor=none;align=left;" vertex="1" parent="1">
          <mxGeometry x="175" y="470" width="150" height="60" as="geometry" />
        </mxCell>
        <mxCell id="2qmqJhzmF6oV58kFOMkS-93" value="" style="endArrow=none;html=1;rounded=0;exitX=0.5;exitY=0;exitDx=0;exitDy=0;entryX=0;entryY=1;entryDx=0;entryDy=0;" edge="1" target="2qmqJhzmF6oV58kFOMkS-94" parent="1" source="2qmqJhzmF6oV58kFOMkS-74">
          <mxGeometry width="50" height="50" relative="1" as="geometry">
            <mxPoint x="360" y="426.4" as="sourcePoint" />
            <mxPoint x="424.31999999999994" y="269.9999999999999" as="targetPoint" />
          </mxGeometry>
        </mxCell>
        <mxCell id="2qmqJhzmF6oV58kFOMkS-94" value="" style="ellipse;whiteSpace=wrap;html=1;aspect=fixed;" vertex="1" parent="1">
          <mxGeometry x="440" y="280" width="10" height="10" as="geometry" />
        </mxCell>
        <mxCell id="2qmqJhzmF6oV58kFOMkS-95" value="" style="endArrow=none;html=1;rounded=0;entryX=0;entryY=0.5;entryDx=0;entryDy=0;exitX=1;exitY=0.5;exitDx=0;exitDy=0;exitPerimeter=0;" edge="1" parent="1" source="2qmqJhzmF6oV58kFOMkS-90" target="2qmqJhzmF6oV58kFOMkS-74">
          <mxGeometry width="50" height="50" relative="1" as="geometry">
            <mxPoint x="200" y="490" as="sourcePoint" />
            <mxPoint x="250" y="440" as="targetPoint" />
          </mxGeometry>
        </mxCell>
        <mxCell id="2qmqJhzmF6oV58kFOMkS-97" value="Grecia" style="rounded=0;whiteSpace=wrap;html=1;strokeColor=default;verticalAlign=top;" vertex="1" parent="1">
          <mxGeometry x="440" y="390" width="220" height="170" as="geometry" />
        </mxCell>
        <mxCell id="2qmqJhzmF6oV58kFOMkS-98" value="Oficiul din Grecia" style="rounded=0;whiteSpace=wrap;html=1;" vertex="1" parent="1">
          <mxGeometry x="540" y="430" width="110" height="20" as="geometry" />
        </mxCell>
        <mxCell id="2qmqJhzmF6oV58kFOMkS-99" value="" style="strokeWidth=2;html=1;shape=mxgraph.flowchart.database;whiteSpace=wrap;movable=1;resizable=1;rotatable=1;deletable=1;editable=1;locked=0;connectable=1;" vertex="1" parent="1">
          <mxGeometry x="470" y="420" width="30" height="40" as="geometry" />
        </mxCell>
        <mxCell id="2qmqJhzmF6oV58kFOMkS-100" value="Angajații străini&lt;br&gt;Lista contactelor hoteluri&lt;br&gt;Statistici hoteuri/atracțiuni&lt;br&gt;Opțiuni de transport" style="rounded=0;whiteSpace=wrap;html=1;fontColor=default;fillColor=none;strokeColor=none;align=left;" vertex="1" parent="1">
          <mxGeometry x="455" y="470" width="150" height="60" as="geometry" />
        </mxCell>
        <mxCell id="2qmqJhzmF6oV58kFOMkS-101" value="" style="endArrow=none;html=1;rounded=0;entryX=0;entryY=0.5;entryDx=0;entryDy=0;exitX=1;exitY=0.5;exitDx=0;exitDy=0;exitPerimeter=0;" edge="1" parent="1" source="2qmqJhzmF6oV58kFOMkS-99" target="2qmqJhzmF6oV58kFOMkS-98">
          <mxGeometry width="50" height="50" relative="1" as="geometry">
            <mxPoint x="480" y="490" as="sourcePoint" />
            <mxPoint x="530" y="440" as="targetPoint" />
          </mxGeometry>
        </mxCell>
        <mxCell id="2qmqJhzmF6oV58kFOMkS-102" value="" style="endArrow=none;html=1;rounded=0;exitX=0.5;exitY=0;exitDx=0;exitDy=0;" edge="1" target="2qmqJhzmF6oV58kFOMkS-103" parent="1" source="2qmqJhzmF6oV58kFOMkS-98">
          <mxGeometry width="50" height="50" relative="1" as="geometry">
            <mxPoint x="430" y="370" as="sourcePoint" />
            <mxPoint x="600" y="480" as="targetPoint" />
          </mxGeometry>
        </mxCell>
        <mxCell id="2qmqJhzmF6oV58kFOMkS-103" value="" style="ellipse;whiteSpace=wrap;html=1;aspect=fixed;" vertex="1" parent="1">
          <mxGeometry x="495" y="280" width="10" height="10" as="geometry" />
        </mxCell>
      </root>
    </mxGraphModel>
  </diagram>
</mxfile>
